<?xml version="1.0" encoding="UTF-8"?>
<svg width="451px" height="167px" viewBox="0 0 451 167" version="1.1" xmlns="http://www.w3.org/2000/svg" xmlns:xlink="http://www.w3.org/1999/xlink" style="background: #FFFFFF;">
    <title>GT_logo</title>
        <g id="Great-Tables" transform="translate(19.200000, 24.176000)" fill="#F900C3" fill-rule="nonzero">
            <polygon id="G" points="44.032 42.496 28.288 42.496 25.856 52.992 32 52.992 21.376 96.768 12.544 89.728 31.488 10.496 41.856 10.496 39.68 19.84 50.176 19.84 54.912 0 22.656 0 0 94.08 26.368 115.968"></polygon>
            <polygon id="r" points="46.08 102.272 58.112 52.48 65.664 52.48 64 59.392 74.496 59.392 78.72 41.984 50.048 41.984 37.376 94.976"></polygon>
            <path d="M87.68,64.512 L90.752,51.328 L100.736,51.328 L97.536,64.512 L87.68,64.512 Z M85.504,72.832 L106.112,72.832 L113.536,41.984 L82.56,41.984 L69.76,94.976 L95.616,116.224 L103.424,83.968 L93.44,83.968 L90.24,97.28 L81.28,90.368 L85.504,72.832 Z" id="e"></path>
            <path d="M150.528,41.984 L119.936,41.984 L117.504,52.48 L137.6,52.48 L135.168,62.336 L115.072,62.336 L107.52,93.44 L132.864,115.584 L150.528,41.984 Z M119.168,88.96 L123.648,70.272 L133.376,70.272 L127.104,96 L119.168,88.96 Z" id="a"></path>
            <polygon id="t" points="172.928 103.424 155.392 89.856 164.224 52.992 178.944 52.992 181.504 41.984 166.912 41.984 177.024 0 166.4 0 143.744 94.464 169.856 115.968"></polygon>
            <polygon id="T" points="258.816 0 227.456 0 224.896 10.496 235.648 10.496 212.224 108.416 221.184 115.968 246.4 10.496 256.256 10.496"></polygon>
            <path d="M279.936,41.984 L249.344,41.984 L246.912,52.48 L267.008,52.48 L264.576,62.336 L244.48,62.336 L236.928,93.44 L262.272,115.584 L279.936,41.984 Z M248.576,88.96 L253.056,70.272 L262.784,70.272 L256.512,96 L248.576,88.96 Z" id="a"></path>
            <path d="M320.384,41.984 L298.88,41.984 L308.992,0 L298.368,0 L275.968,93.824 L302.464,115.968 L320.384,41.984 Z M287.488,89.216 L296.192,52.992 L306.688,52.992 L296.064,96.768 L287.488,89.216 Z" id="b"></path>
            <polygon id="l" points="347.776 0 337.024 0 310.784 109.568 319.872 115.968"></polygon>
            <path d="M350.464,64.512 L353.536,51.328 L363.52,51.328 L360.32,64.512 L350.464,64.512 Z M348.288,72.832 L368.896,72.832 L376.32,41.984 L345.344,41.984 L332.544,94.976 L358.4,116.224 L366.208,83.968 L356.224,83.968 L353.024,97.28 L344.064,90.368 L348.288,72.832 Z" id="e"></path>
            <polygon id="s" points="406.528 73.344 388.224 62.72 390.656 52.48 409.856 52.48 412.288 41.984 382.72 41.984 376.32 68.992 393.984 79.36 389.76 96.768 372.736 82.432 369.792 95.104 396.288 115.968"></polygon>
        </g>
</svg>
