<?xml version="1.0" encoding="UTF-8"?>
<svg width="443px" height="259px" viewBox="0 0 443 259" version="1.1" xmlns="http://www.w3.org/2000/svg" xmlns:xlink="http://www.w3.org/1999/xlink" style="background: #FCFCFC;">
    <title>GT_logo</title>
    <defs>
        <path d="M383.431478,82.5456608 C386.312498,84.2366279 388.078078,86.0959436 388.72822,88.1236077 C389.378361,90.1512719 388.862072,92.2799451 387.179353,94.5096275 C385.496634,96.7393098 382.692102,99.0064029 378.765757,101.310907 C375.017882,103.510661 371.231764,105.059467 367.407402,105.957325 C363.58304,106.855184 360.172984,107.173176 357.177234,106.9113 C354.181484,106.649425 351.816754,106.009701 350.083043,104.992127 C348.935734,104.318733 348.36208,103.503178 348.36208,102.545462 C348.36208,101.587747 348.986726,100.742263 350.236017,100.009012 C351.332335,99.3655464 352.441399,99.0288494 353.563212,98.9989208 C354.685025,98.9689922 355.998056,99.0812245 357.502305,99.3356178 C360.434316,99.7995114 363.104995,99.8631097 365.514343,99.5264127 C367.923691,99.1897157 370.4159,98.2656695 372.990971,96.7542741 C375.081622,95.5272006 376.330913,94.247752 376.738845,92.9159283 C377.146777,91.5841046 376.751593,90.5665315 375.553293,89.8632089 C373.717599,88.7857785 371.684314,88.4079296 369.453436,88.7296623 C367.616242,88.9946186 365.19547,89.6325436 362.191118,90.6434372 L360.86781,91.0995121 C360.641303,91.1793304 360.41182,91.2610516 360.179358,91.3446757 L358.417772,91.9568158 C354.673184,93.2347014 351.397774,94.197871 348.591542,94.8463245 C345.353582,95.59454 342.255849,95.8938262 339.298343,95.7441831 C336.340836,95.59454 333.689279,94.8313601 331.34367,93.4546435 C329.253019,92.22757 327.901744,90.7012103 327.289846,88.8755643 C326.677948,87.0499184 327.034889,85.0970758 328.360668,83.0170366 C329.686446,80.9369973 332.070299,78.8868867 335.512224,76.8667047 C338.214773,75.2804877 340.923696,74.0197445 343.638993,73.0844751 C346.35429,72.1492056 348.903865,71.5356689 351.287717,71.2438648 C353.671569,70.9520608 355.813212,70.9221321 357.712645,71.154079 C359.612078,71.3860258 361.109953,71.8237319 362.20627,72.4671973 C363.40457,73.1705199 363.984598,73.9823338 363.946355,74.9026389 C363.908111,75.822944 363.149613,76.7170616 361.670859,77.5849916 C360.600038,78.2134927 359.382616,78.5688951 358.018594,78.6511988 C356.654571,78.7335025 354.876243,78.6998328 352.683609,78.5501897 C350.873411,78.4155109 349.126953,78.4828503 347.444233,78.7522079 C345.761514,79.0215655 344.002308,79.6949595 342.166614,80.7723899 C340.279929,81.8797489 339.113498,83.0357419 338.667323,84.240369 C338.221147,85.444996 338.59721,86.3989709 339.79551,87.1022935 C340.891827,87.7457589 342.249475,88.0038932 343.868455,87.8766966 C345.487435,87.7494999 347.304007,87.3641689 349.318171,86.7207035 L350.707819,86.2678804 L350.707819,86.2678804 L352.287124,85.7367237 L352.287124,85.7367237 L354.687887,84.9066626 L354.687887,84.9066626 L356.014706,84.4394096 L356.014706,84.4394096 L357.425818,83.9373417 L357.425818,83.9373417 C361.454146,82.5007678 365.042672,81.5019001 368.191396,80.9407384 C371.340121,80.3795767 374.189271,80.2261925 376.738845,80.4805858 C379.28842,80.7349791 381.519297,81.4233374 383.431478,82.5456608 Z" id="path-1"></path>
        <filter x="-7.3%" y="-6.9%" width="114.5%" height="125.0%" filterUnits="objectBoundingBox" id="filter-2">
            <feMorphology radius="1.5" operator="dilate" in="SourceAlpha" result="shadowSpreadOuter1"></feMorphology>
            <feOffset dx="0" dy="2" in="shadowSpreadOuter1" result="shadowOffsetOuter1"></feOffset>
            <feComposite in="shadowOffsetOuter1" in2="SourceAlpha" operator="out" result="shadowOffsetOuter1"></feComposite>
            <feColorMatrix values="0 0 0 0 0.953917572   0 0 0 0 0.937449153   0 0 0 0 0  0 0 0 1 0" type="matrix" in="shadowOffsetOuter1"></feColorMatrix>
        </filter>
        <path d="M326.666628,108.747748 L306.272654,120.570628 C308.665954,121.928561 311.231114,122.862141 313.968133,123.371366 C316.705152,123.880591 319.302137,123.954392 321.759089,123.592768 C324.216041,123.231145 326.37383,122.511587 328.232457,121.434096 C329.480029,120.710849 330.472994,119.965461 331.211352,119.197934 C331.949711,118.430406 332.49075,117.585387 332.834468,116.662878 C333.178187,115.740369 333.400968,114.836309 333.50281,113.9507 L333.591031,113.07594 L333.591031,113.07594 L333.646026,112.40642 L333.646026,112.40642 L333.74685,110.860147 C333.754743,110.719778 333.762509,110.57653 333.770147,110.430405 C333.846529,109.854759 334.381202,109.279113 335.374167,108.703467 C336.443514,108.083541 337.601974,107.751438 338.849545,107.707157 C340.097116,107.662877 341.255576,107.9507 342.324923,108.570626 C343.266966,109.116751 343.99896,109.96915 344.520903,111.127822 C345.042846,112.286494 345.138323,113.633357 344.807335,115.168413 C344.476347,116.703468 343.566129,118.345535 342.076681,120.094613 C340.587234,121.84369 338.378523,123.566938 335.450549,125.264355 C328.7544,129.146274 321.638151,131.057714 314.101801,130.998673 C306.565451,130.939633 299.525584,129.013433 292.982199,125.220075 C289.901461,123.434097 287.501796,121.511587 285.783202,119.452546 C284.064609,117.393505 283.141661,115.308634 283.014358,113.197933 C282.887054,111.087231 283.606317,108.99498 285.172147,106.921179 C286.737976,104.847378 289.086721,102.902729 292.21838,101.08723 C296.292082,98.7256062 300.645852,97.1979307 305.279689,96.5042037 C309.913526,95.8104766 314.318217,95.8326169 318.493762,96.5706243 C322.669307,97.3086318 326.170145,98.4968239 328.996277,100.1352 C331.618723,101.655496 332.567132,103.07616 331.841503,104.397194 C331.115875,105.718227 329.390917,107.168412 326.666628,108.747748 Z M300.353055,117.138893 L319.257581,106.179482 C315.438485,104.260662 311.810343,103.271732 308.373157,103.212692 C304.93597,103.153651 301.855232,103.913799 299.130944,105.493135 C296.533958,106.99867 295.299117,108.755128 295.42642,110.762508 C295.553724,112.769889 297.195935,114.89535 300.353055,117.138893 Z" id="path-3"></path>
        <filter x="-7.3%" y="-7.1%" width="114.5%" height="125.7%" filterUnits="objectBoundingBox" id="filter-4">
            <feMorphology radius="1.5" operator="dilate" in="SourceAlpha" result="shadowSpreadOuter1"></feMorphology>
            <feOffset dx="0" dy="2" in="shadowSpreadOuter1" result="shadowOffsetOuter1"></feOffset>
            <feComposite in="shadowOffsetOuter1" in2="SourceAlpha" operator="out" result="shadowOffsetOuter1"></feComposite>
            <feColorMatrix values="0 0 0 0 0.953917572   0 0 0 0 0.937449153   0 0 0 0 0  0 0 0 1 0" type="matrix" in="shadowOffsetOuter1"></feColorMatrix>
        </filter>
        <path d="M289.12837,146.101047 L243.396954,119.94572 C241.285481,118.738097 240.158933,117.556248 240.01731,116.400171 C239.875686,115.244093 240.603115,114.209515 242.199594,113.296434 C243.796074,112.383354 245.617863,111.952587 247.664962,112.004131 C249.712061,112.055676 251.804222,112.692623 253.941444,113.914973 L299.672861,140.0703 C301.810084,141.29265 302.917319,142.492908 302.994568,143.671076 C303.071817,144.849244 302.325077,145.887504 300.754347,146.785857 C299.209367,147.669483 297.400452,148.070797 295.327604,147.989798 C293.254755,147.908799 291.188344,147.279215 289.12837,146.101047 Z" id="path-5"></path>
        <filter x="-7.1%" y="-6.9%" width="114.3%" height="125.0%" filterUnits="objectBoundingBox" id="filter-6">
            <feMorphology radius="1.5" operator="dilate" in="SourceAlpha" result="shadowSpreadOuter1"></feMorphology>
            <feOffset dx="0" dy="2" in="shadowSpreadOuter1" result="shadowOffsetOuter1"></feOffset>
            <feComposite in="shadowOffsetOuter1" in2="SourceAlpha" operator="out" result="shadowOffsetOuter1"></feComposite>
            <feColorMatrix values="0 0 0 0 0.953917572   0 0 0 0 0.937449153   0 0 0 0 0  0 0 0 1 0" type="matrix" in="shadowOffsetOuter1"></feColorMatrix>
        </filter>
        <path d="M205.077666,142.339837 L221.156104,151.428361 C221.078989,149.147149 221.522399,147.116579 222.486334,145.336652 C223.450269,143.556725 225.448828,141.809491 228.48201,140.094949 C231.977882,138.118867 235.87218,136.854756 240.164904,136.302616 C244.457628,135.750475 248.904582,135.953895 253.505766,136.912876 C258.10695,137.871857 262.566756,139.571869 266.885185,142.012911 C270.072598,143.814633 272.591681,145.69627 274.442437,147.657822 C276.293192,149.619374 277.424209,151.588191 277.835488,153.564273 C278.246767,155.540355 277.886898,157.451052 276.755881,159.296364 C275.624864,161.141676 273.735551,162.812628 271.087943,164.309219 C269.468532,165.22461 267.752727,165.976538 265.940529,166.565004 C264.128331,167.15347 262.4061,167.553045 260.773837,167.76373 C259.141573,167.974415 257.637835,168.090656 256.262621,168.112451 L255.457058,168.118215 L255.457058,168.118215 L254.540602,168.11173 L254.540602,168.11173 L253.513254,168.092997 L253.513254,168.092997 L252.375014,168.062016 L252.375014,168.062016 L251.125882,168.018786 C250.908452,168.01056 250.686402,168.001824 250.459731,167.992578 L251.500781,168.581044 C253.480061,169.699855 254.501832,170.815033 254.566095,171.92658 C254.630357,173.038126 253.929898,174.008004 252.464716,174.836215 C250.97383,175.678956 249.277304,176.064001 247.375139,175.991351 C245.472973,175.918701 243.532251,175.32297 241.552971,174.204159 L195.592544,148.224493 C193.459035,147.018501 192.276607,145.863365 192.045263,144.759084 C191.813919,143.654803 192.469394,142.666762 194.011691,141.794961 C195.631102,140.87957 197.398316,140.469097 199.313334,140.563542 C201.228352,140.657987 203.149796,141.250086 205.077666,142.339837 Z M236.848967,159.732265 C241.038872,162.100657 245.215924,163.379298 249.380124,163.568188 C253.544323,163.757079 257.181572,162.972458 260.291869,161.214326 C262.939478,159.717735 264.070495,157.777978 263.684921,155.395055 C263.299347,153.012133 260.960198,150.607415 256.667473,148.180903 C253.89134,146.611661 251.102355,145.485585 248.300516,144.802674 C245.498678,144.119764 242.818939,143.883651 240.261298,144.094336 C237.703656,144.305021 235.448048,144.962504 233.494473,146.066786 C231.489488,147.200127 230.249225,148.518726 229.773683,150.022582 C229.298142,151.526439 229.645159,153.117475 230.814733,154.795692 C231.984308,156.473909 233.995719,158.119433 236.848967,159.732265 Z" id="path-7"></path>
        <filter x="-5.2%" y="-6.3%" width="110.5%" height="122.5%" filterUnits="objectBoundingBox" id="filter-8">
            <feMorphology radius="1.5" operator="dilate" in="SourceAlpha" result="shadowSpreadOuter1"></feMorphology>
            <feOffset dx="0" dy="2" in="shadowSpreadOuter1" result="shadowOffsetOuter1"></feOffset>
            <feComposite in="shadowOffsetOuter1" in2="SourceAlpha" operator="out" result="shadowOffsetOuter1"></feComposite>
            <feColorMatrix values="0 0 0 0 0.953917572   0 0 0 0 0.937449153   0 0 0 0 0  0 0 0 1 0" type="matrix" in="shadowOffsetOuter1"></feColorMatrix>
        </filter>
        <path d="M222.307907,185.219284 C221.740144,187.798555 220.759463,190.04809 219.365864,191.967888 C217.972265,193.887687 215.79154,195.690245 212.82369,197.375565 C210.113914,198.914334 207.197678,199.962163 204.074984,200.519051 C200.952289,201.075939 197.919921,201.149214 194.977878,200.738875 C192.035835,200.328537 189.493807,199.515187 187.351794,198.298826 C184.461366,196.657472 182.912922,194.737674 182.706463,192.539431 C182.511474,190.463314 183.525012,188.38066 185.747076,186.29147 L186.584113,185.536903 L186.584113,185.536903 L189.772792,182.77479 L189.772792,182.77479 L191.221303,181.526237 L191.221303,181.526237 L192.778065,180.165325 L192.778065,180.165325 L194.185101,178.912327 L194.185101,178.912327 L195.039944,178.136947 L195.039944,178.136947 L195.442411,177.767243 C196.887625,176.433642 198.397358,174.953492 199.971609,173.326793 C197.055373,171.817333 194.448827,170.974674 192.151969,170.798814 C189.855111,170.622955 187.145335,171.42165 184.02264,173.194899 C181.338671,174.719013 179.69345,176.07826 179.086976,177.272638 C178.480503,178.467017 178.441792,179.76398 178.970843,181.163527 L179.369014,182.252779 L179.369014,182.252779 L179.595059,182.924869 L179.595059,182.924869 L179.711193,183.303953 L179.711193,183.303953 L179.799675,183.627858 L179.799675,183.627858 L179.860507,183.896582 C179.868341,183.936771 179.875024,183.97466 179.880554,184.010251 C179.957976,184.508519 179.338598,185.131355 178.022421,185.878757 C176.835281,186.552885 175.428779,186.919258 173.802913,186.977878 C172.177047,187.036498 170.770544,186.728744 169.583404,186.054616 C167.725272,184.99946 166.576843,183.599912 166.138117,181.855973 C165.699392,180.112035 166.305865,178.126289 167.957538,175.898737 C169.609212,173.671184 172.512543,171.377685 176.667533,169.018238 C181.312864,166.380347 185.513017,164.61809 189.267993,163.731465 C193.022968,162.844841 196.636003,162.764239 200.107097,163.489658 C203.578192,164.215078 207.275101,165.691565 211.197824,167.919117 L216.412982,170.894658 L216.412982,170.894658 L220.613704,173.320288 L220.613704,173.320288 L223.198262,174.821598 L223.198262,174.821598 C225.185431,175.950029 227.585518,176.939238 230.398524,177.789225 L231.345807,178.078876 L231.345807,178.078876 L232.202005,178.347837 L232.202005,178.347837 L232.967119,178.596109 L232.967119,178.596109 L233.641147,178.823692 L233.641147,178.823692 L234.22409,179.030586 C234.313657,179.063344 234.399429,179.09524 234.481405,179.126274 L234.927721,179.302133 C235.194904,179.412476 235.401363,179.509026 235.547099,179.591784 C236.631009,180.207292 237.108446,181.057279 236.979409,182.141745 C236.850372,183.226211 236.140669,184.134818 234.850299,184.867566 C233.766389,185.483073 232.185686,185.801819 230.108191,185.823801 C228.030696,185.845783 225.430601,185.644278 222.307907,185.219284 Z M206.320227,176.931911 C206.058712,177.252365 205.749482,177.602521 205.392537,177.982377 L204.821334,178.574437 L204.821334,178.574437 L204.178558,179.211048 L204.178558,179.211048 L203.464209,179.89221 L203.464209,179.89221 L202.678288,180.617923 L202.678288,180.617923 L201.820794,181.388188 L201.820794,181.388188 L199.183188,183.718242 L199.183188,183.718242 L197.555715,185.189163 L197.555715,185.189163 L196.949934,185.753138 L196.949934,185.753138 L196.623099,186.065608 L196.623099,186.065608 C195.784359,186.878957 195.281115,187.824202 195.113367,188.90134 C194.945619,189.978479 195.635967,190.956697 197.18441,191.835994 C198.784469,192.744601 200.752282,193.173258 203.087851,193.121966 C205.42342,193.070673 207.571886,192.488139 209.533247,191.374363 C211.623646,190.187312 213.094667,188.831729 213.946311,187.307615 C214.797955,185.7835 214.914089,184.376625 214.294711,183.086989 C213.649526,181.636149 211.494609,179.870228 207.829959,177.789225 L206.320227,176.931911 Z" id="path-9"></path>
        <filter x="-6.3%" y="-6.6%" width="112.7%" height="123.7%" filterUnits="objectBoundingBox" id="filter-10">
            <feMorphology radius="1.5" operator="dilate" in="SourceAlpha" result="shadowSpreadOuter1"></feMorphology>
            <feOffset dx="0" dy="2" in="shadowSpreadOuter1" result="shadowOffsetOuter1"></feOffset>
            <feComposite in="shadowOffsetOuter1" in2="SourceAlpha" operator="out" result="shadowOffsetOuter1"></feComposite>
            <feColorMatrix values="0 0 0 0 0.953917572   0 0 0 0 0.937449153   0 0 0 0 0  0 0 0 1 0" type="matrix" in="shadowOffsetOuter1"></feColorMatrix>
        </filter>
        <path d="M153.7996,175.271039 L141.330144,182.503918 L182.317707,206.27866 C184.67818,207.647847 185.903317,208.968666 185.993117,210.241117 C186.082918,211.513568 185.293956,212.633474 183.62623,213.600834 C181.932847,214.583077 179.976477,215.048154 177.757119,214.996065 C175.537761,214.943977 173.260674,214.24078 170.925858,212.886476 L129.938296,189.111734 L117.46884,196.344613 C115.518884,197.475681 113.639485,198.067259 111.830645,198.119347 C110.021804,198.171436 108.411807,197.788212 107.000655,196.969677 C105.538188,196.121376 104.877512,195.165178 105.018627,194.101081 C105.159742,193.036985 106.166792,191.961726 108.039776,190.875306 L144.370536,169.801733 C146.346149,168.655783 148.251205,168.056763 150.085703,168.004675 C151.920201,167.952586 153.543027,168.33581 154.954179,169.154345 C156.365331,169.972881 157.013179,170.914197 156.897721,171.978293 C156.782263,173.04239 155.749556,174.139972 153.7996,175.271039 Z" id="path-11"></path>
        <filter x="-5.6%" y="-5.3%" width="111.1%" height="119.1%" filterUnits="objectBoundingBox" id="filter-12">
            <feMorphology radius="1.5" operator="dilate" in="SourceAlpha" result="shadowSpreadOuter1"></feMorphology>
            <feOffset dx="0" dy="2" in="shadowSpreadOuter1" result="shadowOffsetOuter1"></feOffset>
            <feComposite in="shadowOffsetOuter1" in2="SourceAlpha" operator="out" result="shadowOffsetOuter1"></feComposite>
            <feColorMatrix values="0 0 0 0 0.953917572   0 0 0 0 0.937449153   0 0 0 0 0  0 0 0 1 0" type="matrix" in="shadowOffsetOuter1"></feColorMatrix>
        </filter>
        <path d="M243.019714,50.7018414 L244.180183,50.0346793 L237.33806,46.0995349 L237.33806,46.0995349 L236.415875,45.5569097 L236.415875,45.5569097 L235.592716,45.058762 L235.592716,45.058762 L234.868583,44.6050918 L234.868583,44.6050918 L234.243478,44.1958991 C234.147546,44.1314067 234.05574,44.0687676 233.96806,44.0079818 C233.091261,43.400123 232.511027,42.7774384 232.227357,42.1399279 C231.917899,41.4875917 231.924346,40.8093102 232.246698,40.1050835 C232.569051,39.4008569 233.207308,38.7744658 234.161471,38.2259103 C235.502457,37.4549675 237.217372,37.0472573 239.306215,37.0027798 C240.698777,36.9731282 241.975293,37.1806897 243.135761,37.6254645 C244.29623,38.0702392 245.766157,38.8041175 247.545542,39.8270993 L254.740446,43.9635043 L258.608675,41.7396307 C260.10439,40.8797329 261.600105,40.4275452 263.09582,40.3830678 C264.591535,40.3385903 265.893838,40.6351068 267.00273,41.2726172 C268.421081,42.0880375 268.853033,42.9812934 268.298587,43.9523849 C267.744141,44.9234764 266.422496,46.009468 264.333653,47.2103598 L262.360856,48.3445353 L282.221492,59.76091 L282.221492,59.76091 L283.057796,60.2284749 C283.191852,60.3022364 283.323244,60.373915 283.451972,60.4435106 L284.19237,60.8360886 C284.782728,61.1424073 285.306484,61.3966518 285.763638,61.5988221 C286.769378,62.0435969 287.800905,62.28081 288.858221,62.3104617 C289.915537,62.3401133 291.011535,62.028771 292.146215,61.3764348 C292.687767,61.0650925 293.313231,60.6090246 294.022608,60.0082313 L294.331764,59.7418877 C295.16988,59.0080094 295.885502,58.4705732 296.478631,58.1295793 C297.329641,57.6403271 298.438533,57.395701 299.805307,57.395701 C301.172081,57.395701 302.358338,57.6848046 303.364077,58.2630117 C305.066098,59.2415161 305.440027,60.5239499 304.485864,62.1103131 C303.531701,63.6966763 301.313916,65.490601 297.832511,67.4920872 C294.531623,69.3897927 291.475722,70.5091425 288.664809,70.8501364 C285.853897,71.1911304 283.20416,70.9502107 280.7156,70.1273775 C278.22704,69.3045442 275.34521,67.9516878 272.07011,66.0688081 L251.800593,54.4157103 L250.408031,55.2163048 C248.886527,56.0910285 247.365024,56.550629 245.843521,56.5951065 C244.322018,56.639584 243.00682,56.3430675 241.897928,55.705557 C240.789036,55.0680466 240.29906,54.3045166 240.428001,53.4149672 C240.556942,52.5254177 241.420847,51.6210425 243.019714,50.7018414 Z" id="path-13"></path>
        <filter x="-6.2%" y="-7.4%" width="112.4%" height="126.5%" filterUnits="objectBoundingBox" id="filter-14">
            <feMorphology radius="1.5" operator="dilate" in="SourceAlpha" result="shadowSpreadOuter1"></feMorphology>
            <feOffset dx="0" dy="2" in="shadowSpreadOuter1" result="shadowOffsetOuter1"></feOffset>
            <feComposite in="shadowOffsetOuter1" in2="SourceAlpha" operator="out" result="shadowOffsetOuter1"></feComposite>
            <feColorMatrix values="0 0 0 0 0.953917572   0 0 0 0 0.937449153   0 0 0 0 0  0 0 0 1 0" type="matrix" in="shadowOffsetOuter1"></feColorMatrix>
        </filter>
        <path d="M257.307907,84.2192843 C256.740144,86.7985554 255.759463,89.0480901 254.365864,90.9678884 C252.972265,92.8876867 250.79154,94.6902455 247.82369,96.3755646 C245.113914,97.9143343 242.197678,98.9621631 239.074984,99.5190512 C235.952289,100.075939 232.919921,100.149214 229.977878,99.7388755 C227.035835,99.3285369 224.493807,98.5151872 222.351794,97.2988264 C219.461366,95.6574721 217.912922,93.7376738 217.706463,91.5394314 C217.511474,89.4633136 218.525012,87.3806599 220.747076,85.2914702 L221.584113,84.5369029 L221.584113,84.5369029 L224.772792,81.7747901 L224.772792,81.7747901 L226.221303,80.5262371 L226.221303,80.5262371 L227.778065,79.1653253 L227.778065,79.1653253 L229.185101,77.9123271 L229.185101,77.9123271 L230.039944,77.1369471 L230.039944,77.1369471 L230.442411,76.7672427 C231.887625,75.4336423 233.397358,73.9534924 234.971609,72.3267931 C232.055373,70.8173333 229.448827,69.9746738 227.151969,69.7988144 C224.855111,69.622955 222.145335,70.4216497 219.02264,72.1948986 C216.338671,73.7190133 214.69345,75.0782598 214.086976,76.2726381 C213.480503,77.4670165 213.441792,78.7639795 213.970843,80.1635271 L214.369014,81.2527787 L214.369014,81.2527787 L214.595059,81.9248688 L214.595059,81.9248688 L214.711193,82.3039535 L214.711193,82.3039535 L214.799675,82.6278578 L214.799675,82.6278578 L214.860507,82.8965817 C214.868341,82.9367707 214.875024,82.9746604 214.880554,83.010251 C214.957976,83.5085193 214.338598,84.1313546 213.022421,84.878757 C211.835281,85.5528847 210.428779,85.9192584 208.802913,85.9778782 C207.177047,86.036498 205.770544,85.7287441 204.583404,85.0546164 C202.725272,83.9994601 201.576843,82.5999124 201.138117,80.8559735 C200.699392,79.1120345 201.305865,77.1262889 202.957538,74.8987367 C204.609212,72.6711844 207.512543,70.3776849 211.667533,68.018238 C216.312864,65.3803472 220.513017,63.6180896 224.267993,62.7314651 C228.022968,61.8448407 231.636003,61.7642385 235.107097,62.4896585 C238.578192,63.2150785 242.275101,64.6915646 246.197824,66.9191169 L251.412982,69.8946577 L251.412982,69.8946577 L255.613704,72.3202881 L255.613704,72.3202881 L258.198262,73.8215979 L258.198262,73.8215979 C260.185431,74.950029 262.585518,75.9392381 265.398524,76.7892251 L266.345807,77.0788759 L266.345807,77.0788759 L267.202005,77.3478373 L267.202005,77.3478373 L267.967119,77.5961094 L267.967119,77.5961094 L268.641147,77.8236921 L268.641147,77.8236921 L269.22409,78.0305855 C269.313657,78.0633436 269.399429,78.0952397 269.481405,78.1262737 L269.927721,78.3021331 C270.194904,78.4124762 270.401363,78.5090265 270.547099,78.5917839 C271.631009,79.2072917 272.108446,80.0572788 271.979409,81.141745 C271.850372,82.2262112 271.140669,83.1348181 269.850299,83.8675655 C268.766389,84.4830734 267.185686,84.8018185 265.108191,84.823801 C263.030696,84.8457834 260.430601,84.6442778 257.307907,84.2192843 Z M241.320227,75.9319106 C241.058712,76.2523655 240.749482,76.6025211 240.392537,76.9823773 L239.821334,77.5744373 L239.821334,77.5744373 L239.178558,78.2110483 L239.178558,78.2110483 L238.464209,78.8922103 L238.464209,78.8922103 L237.678288,79.6179234 L237.678288,79.6179234 L236.820794,80.3881875 L236.820794,80.3881875 L234.183188,82.7182423 L234.183188,82.7182423 L232.555715,84.1891631 L232.555715,84.1891631 L231.949934,84.7531377 L231.949934,84.7531377 L231.623099,85.0656076 L231.623099,85.0656076 C230.784359,85.8789573 230.281115,86.8242015 230.113367,87.9013403 C229.945619,88.978479 230.635967,89.9566969 232.18441,90.8359939 C233.784469,91.7446007 235.752282,92.173258 238.087851,92.1219656 C240.42342,92.0706733 242.571886,91.4881391 244.533247,90.374363 C246.623646,89.1873121 248.094667,87.8317293 248.946311,86.3076146 C249.797955,84.7834999 249.914089,83.3766247 249.294711,82.0869892 C248.649526,80.6361493 246.494609,78.8702279 242.829959,76.7892251 L241.320227,75.9319106 Z" id="path-15"></path>
        <filter x="-6.3%" y="-6.6%" width="112.7%" height="123.7%" filterUnits="objectBoundingBox" id="filter-16">
            <feMorphology radius="1.5" operator="dilate" in="SourceAlpha" result="shadowSpreadOuter1"></feMorphology>
            <feOffset dx="0" dy="2" in="shadowSpreadOuter1" result="shadowOffsetOuter1"></feOffset>
            <feComposite in="shadowOffsetOuter1" in2="SourceAlpha" operator="out" result="shadowOffsetOuter1"></feComposite>
            <feColorMatrix values="0 0 0 0 0.953917572   0 0 0 0 0.937449153   0 0 0 0 0  0 0 0 1 0" type="matrix" in="shadowOffsetOuter1"></feColorMatrix>
        </filter>
        <path d="M197.666628,101.747748 L177.272654,113.570628 C179.665954,114.928561 182.231114,115.862141 184.968133,116.371366 C187.705152,116.880591 190.302137,116.954392 192.759089,116.592768 C195.216041,116.231145 197.37383,115.511587 199.232457,114.434096 C200.480029,113.710849 201.472994,112.965461 202.211352,112.197934 C202.949711,111.430406 203.49075,110.585387 203.834468,109.662878 C204.178187,108.740369 204.400968,107.836309 204.50281,106.9507 L204.591031,106.07594 L204.591031,106.07594 L204.646026,105.40642 L204.646026,105.40642 L204.74685,103.860147 C204.754743,103.719778 204.762509,103.57653 204.770147,103.430405 C204.846529,102.854759 205.381202,102.279113 206.374167,101.703467 C207.443514,101.083541 208.601974,100.751438 209.849545,100.707157 C211.097116,100.662877 212.255576,100.9507 213.324923,101.570626 C214.266966,102.116751 214.99896,102.96915 215.520903,104.127822 C216.042846,105.286494 216.138323,106.633357 215.807335,108.168413 C215.476347,109.703468 214.566129,111.345535 213.076681,113.094613 C211.587234,114.84369 209.378523,116.566938 206.450549,118.264355 C199.7544,122.146274 192.638151,124.057714 185.101801,123.998673 C177.565451,123.939633 170.525584,122.013433 163.982199,118.220075 C160.901461,116.434097 158.501796,114.511587 156.783202,112.452546 C155.064609,110.393505 154.141661,108.308634 154.014358,106.197933 C153.887054,104.087231 154.606317,101.99498 156.172147,99.9211792 C157.737976,97.8473782 160.086721,95.9027285 163.21838,94.0872301 C167.292082,91.7256062 171.645852,90.1979307 176.279689,89.5042037 C180.913526,88.8104766 185.318217,88.8326169 189.493762,89.5706243 C193.669307,90.3086318 197.170145,91.4968239 199.996277,93.1352005 C202.618723,94.6554959 203.567132,96.0761603 202.841503,97.3971937 C202.115875,98.718227 200.390917,100.168412 197.666628,101.747748 Z M171.353055,110.138893 L190.257581,99.1794817 C186.438485,97.2606623 182.810343,96.2717323 179.373157,96.2126917 C175.93597,96.1536511 172.855232,96.9137988 170.130944,98.4931348 C167.533958,99.99867 166.299117,101.755128 166.42642,103.762508 C166.553724,105.769889 168.195935,107.89535 171.353055,110.138893 Z" id="path-17"></path>
        <filter x="-7.3%" y="-7.1%" width="114.5%" height="125.7%" filterUnits="objectBoundingBox" id="filter-18">
            <feMorphology radius="1.5" operator="dilate" in="SourceAlpha" result="shadowSpreadOuter1"></feMorphology>
            <feOffset dx="0" dy="2" in="shadowSpreadOuter1" result="shadowOffsetOuter1"></feOffset>
            <feComposite in="shadowOffsetOuter1" in2="SourceAlpha" operator="out" result="shadowOffsetOuter1"></feComposite>
            <feColorMatrix values="0 0 0 0 0.953917572   0 0 0 0 0.937449153   0 0 0 0 0  0 0 0 1 0" type="matrix" in="shadowOffsetOuter1"></feColorMatrix>
        </filter>
        <path d="M149.256476,135.56959 L158.716831,141.038105 C160.839129,142.264419 161.93224,143.472265 161.996165,144.661641 C162.060089,145.851018 161.324956,146.888953 159.790764,147.775445 C158.282143,148.647162 156.505038,149.053471 154.45945,148.994371 C152.413861,148.935272 150.342703,148.299953 148.245975,147.088414 L119.096339,130.245064 C114.391486,127.526488 113.739455,125.184672 117.140245,123.219614 C118.878995,122.214923 120.68167,121.808615 122.54827,122.000688 C124.414869,122.192761 126.460458,122.88718 128.685035,124.083944 C127.79009,122.118887 127.45129,120.438246 127.668633,119.042021 C127.885977,117.645796 129.094153,116.312364 131.29316,115.041725 C133.492168,113.771086 136.177003,112.855045 139.347665,112.2936 C142.518327,111.732155 145.011388,111.97594 146.826848,113.024956 C148.10534,113.763699 148.719017,114.628029 148.667877,115.617945 C148.616738,116.607861 148.079771,117.398317 147.056976,117.989311 C146.947391,118.052632 146.774142,118.130426 146.53723,118.222694 L146.134113,118.37195 L146.134113,118.37195 L145.635501,118.542916 L145.635501,118.542916 L145.041393,118.735593 L145.041393,118.735593 L143.971178,119.065314 L143.971178,119.065314 L143.566691,119.186076 C141.623382,119.762295 140.089191,120.375452 138.964117,121.025547 C137.429926,121.912039 136.579728,122.868711 136.413524,123.895565 C136.24732,124.922418 136.6884,126.049002 137.736764,127.275316 C138.785128,128.50163 140.300142,129.805512 142.281806,131.186962 C143.043984,131.718289 143.892215,132.281854 144.826498,132.877657 L145.988943,133.608095 C146.189568,133.732414 146.393635,133.858022 146.601145,133.98492 L147.887505,134.761781 C148.33006,135.025892 148.786384,135.295162 149.256476,135.56959 L149.256476,135.56959 Z" id="path-19"></path>
        <filter x="-9.6%" y="-6.8%" width="119.2%" height="124.3%" filterUnits="objectBoundingBox" id="filter-20">
            <feMorphology radius="1.5" operator="dilate" in="SourceAlpha" result="shadowSpreadOuter1"></feMorphology>
            <feOffset dx="0" dy="2" in="shadowSpreadOuter1" result="shadowOffsetOuter1"></feOffset>
            <feComposite in="shadowOffsetOuter1" in2="SourceAlpha" operator="out" result="shadowOffsetOuter1"></feComposite>
            <feColorMatrix values="0 0 0 0 0.953917572   0 0 0 0 0.937449153   0 0 0 0 0  0 0 0 1 0" type="matrix" in="shadowOffsetOuter1"></feColorMatrix>
        </filter>
        <path d="M118.437686,141.802996 L129.213223,148.104908 C130.644848,148.942173 131.648264,149.693468 132.223471,150.358795 C132.798678,151.024121 133.054325,151.779155 132.990413,152.623895 C132.926501,153.468635 132.626116,154.421772 132.089256,155.483304 C130.529807,158.548291 128.599669,161.246974 126.298843,163.579355 C123.998017,165.911735 120.99416,168.161884 117.287273,170.329802 C112.966832,172.856547 108.365179,174.770295 103.482314,176.071046 C98.599449,177.371797 93.6398898,178.014696 88.6036364,178 C83.5673829,177.984794 78.5758678,177.31573 73.6290909,175.992552 C68.682314,174.669375 63.9847934,172.707036 59.5365289,170.105535 C55.1649587,167.548887 51.815978,164.827776 49.4895868,161.942203 C47.1631956,159.05663 46,156.133679 46,153.17335 C46,150.213021 47.144022,147.278857 49.4320661,144.370857 C51.7201102,141.462857 55.1649587,138.663253 59.7666116,135.972045 C63.5501928,133.759273 67.4040771,132.095957 71.3282645,130.982096 C75.2524518,129.868235 78.8890358,129.229073 82.2380165,129.06461 C85.5869972,128.900148 88.5780716,129.049659 91.2112397,129.513145 C93.8444077,129.976631 95.8256749,130.597104 97.1550413,131.374564 C98.5866667,132.211829 99.2769146,133.235983 99.2257851,134.447027 C99.1746556,135.65807 98.4077135,136.697176 96.9249587,137.564343 C96.1068871,138.04278 95.1290358,138.390394 93.991405,138.607186 C92.8537741,138.823978 91.6841873,138.880045 90.4826446,138.775386 L88.9839771,138.588192 L87.5776556,138.423882 L86.2636802,138.282456 C85.8410794,138.239128 85.4338697,138.199614 85.0420509,138.163915 L83.9127678,138.068258 C83.1906943,138.012115 82.530185,137.971228 81.9312397,137.945597 C79.8349311,137.85589 77.578843,138.068944 75.1629752,138.584759 C72.7471074,139.100574 70.2609366,140.106039 67.7044628,141.601155 C65.0712948,143.141124 63.1731129,144.782013 62.0099174,146.523823 C60.8467218,148.265633 60.3929477,150.070985 60.648595,151.93988 C60.9042424,153.808774 61.894876,155.703833 63.6204959,157.625057 C65.3461157,159.54628 67.7300275,161.396486 70.7722314,163.175674 C77.3679339,167.033072 83.9572452,169.11502 90.5401653,169.421519 C97.1230854,169.728018 103.124408,168.296445 108.544132,165.1268 C111.1773,163.58683 113.305565,161.938465 114.928926,160.181705 C116.552287,158.424944 117.913609,156.477556 119.012893,154.33954 L109.886281,149.001977 L101.066446,154.160126 C98.944573,155.401072 97.0208264,156.152368 95.2952066,156.414013 C93.5695868,156.675658 91.9398347,156.357946 90.4059504,155.460877 C89.1532782,154.72827 88.5716804,153.857365 88.661157,152.848162 C88.7506336,151.838959 89.5750964,150.878347 91.1345455,149.966327 L104.057521,142.408517 C105.642534,141.481546 107.125289,140.778841 108.505785,140.300404 C109.886281,139.821967 111.400992,139.668718 113.049917,139.840656 C114.698843,140.012595 116.494766,140.666708 118.437686,141.802996 Z" id="path-21"></path>
        <filter x="-5.2%" y="-5.1%" width="110.3%" height="118.4%" filterUnits="objectBoundingBox" id="filter-22">
            <feMorphology radius="1.5" operator="dilate" in="SourceAlpha" result="shadowSpreadOuter1"></feMorphology>
            <feOffset dx="0" dy="2" in="shadowSpreadOuter1" result="shadowOffsetOuter1"></feOffset>
            <feComposite in="shadowOffsetOuter1" in2="SourceAlpha" operator="out" result="shadowOffsetOuter1"></feComposite>
            <feColorMatrix values="0 0 0 0 0.953917572   0 0 0 0 0.937449153   0 0 0 0 0  0 0 0 1 0" type="matrix" in="shadowOffsetOuter1"></feColorMatrix>
        </filter>
    </defs>
    <g id="Page-1" stroke="none" stroke-width="1" fill="none" fill-rule="evenodd">
        <path d="M268.617978,10 L426,101.88764 L422.382022,104 L397.044462,89.206188 L338.507462,122.755188 L361,135.88764 L357.382022,138 L334.855462,124.848188 L276.104462,158.520188 L299,171.88764 L295.382022,174 L272.453462,160.612188 L211.972462,195.275188 L237,209.88764 L233.382022,212 L208.320462,197.368188 L150.792462,230.338188 L174,243.88764 L170.382022,246 L13,154.11236 L16.6179775,152 L41.9544615,166.792188 L99.4824615,133.822188 L76,120.11236 L79.6179775,118 L103.133462,131.729188 L163.613462,97.067188 L138,82.1123596 L141.617978,80 L167.265462,94.974188 L226.016462,61.302188 L200,46.1123596 L203.617978,44 L229.668462,59.209188 L288.205462,25.661188 L265,12.1123596 L268.617978,10 Z M172.336462,176.359188 L114.808462,209.329188 L147.186462,228.233188 L204.714462,195.262188 L172.336462,176.359188 Z M138.081462,156.359188 L80.5534615,189.329188 L111.202462,207.223188 L168.730462,174.253188 L138.081462,156.359188 Z M236.469462,139.603188 L175.988462,174.266188 L208.365462,193.169188 L268.846462,158.506188 L236.469462,139.603188 Z M103.088462,135.928188 L45.5604615,168.898188 L76.9474615,187.223188 L134.475462,154.253188 L103.088462,135.928188 Z M202.213462,119.603188 L141.733462,154.266188 L172.382462,172.160188 L232.862462,137.497188 L202.213462,119.603188 Z M298.871462,103.839188 L240.120462,137.510188 L272.497462,156.414188 L331.249462,122.742188 L298.871462,103.839188 Z M167.220462,99.172188 L106.740462,133.835188 L138.126462,152.160188 L198.607462,117.497188 L167.220462,99.172188 Z M264.616462,83.839188 L205.865462,117.510188 L236.514462,135.404188 L295.265462,101.733188 L264.616462,83.839188 Z M361.060462,68.197188 L302.523462,101.746188 L334.900462,120.649188 L393.437462,87.100188 L361.060462,68.197188 Z M229.623462,63.408188 L170.872462,97.079188 L202.259462,115.404188 L261.010462,81.733188 L229.623462,63.408188 Z M326.805462,48.197188 L268.268462,81.746188 L298.916462,99.640188 L357.453462,66.091188 L326.805462,48.197188 Z M291.812462,27.766188 L233.275462,61.315188 L264.661462,79.640188 L323.198462,46.091188 L291.812462,27.766188 Z" id="Gridy" fill="#F0F0F0"></path>
        <path d="M268.617978,8 L426,99.8876404 L422.382022,102 L397.044462,87.207 L338.507462,120.755 L361,133.88764 L357.382022,136 L334.855462,122.848 L276.104462,156.52 L299,169.88764 L295.382022,172 L272.452462,158.613 L211.973462,193.275 L237,207.88764 L233.382022,210 L208.320462,195.368 L150.794462,228.338 L174,241.88764 L170.382022,244 L13,152.11236 L16.6179775,150 L41.9544615,164.793 L99.4824615,131.822 L76,118.11236 L79.6179775,116 L103.133462,129.73 L163.614462,95.067 L138,80.1123596 L141.617978,78 L167.265462,92.974 L226.017462,59.303 L200,44.1123596 L203.617978,42 L229.668462,57.21 L288.205462,23.661 L265,10.1123596 L268.617978,8 Z M172.336462,174.359 L114.810462,207.329 L147.187462,226.232 L204.714462,193.263 L172.336462,174.359 Z M138.081462,154.359 L80.5544615,187.329 L111.203462,205.223 L168.730462,172.253 L138.081462,154.359 Z M236.468462,137.604 L175.989462,172.266 L208.366462,191.169 L268.845462,156.507 L236.468462,137.604 Z M103.088462,133.928 L45.5614615,166.899 L76.9474615,185.224 L134.475462,152.253 L103.088462,133.928 Z M202.213462,117.604 L141.733462,152.266 L172.382462,170.16 L232.862462,135.498 L202.213462,117.604 Z M298.871462,101.839 L240.120462,135.511 L272.497462,154.414 L331.249462,120.743 L298.871462,101.839 Z M167.220462,97.173 L106.740462,131.836 L138.126462,150.161 L198.606462,115.498 L167.220462,97.173 Z M264.616462,81.839 L205.865462,115.511 L236.514462,133.405 L295.265462,99.733 L264.616462,81.839 Z M361.060462,66.197 L302.523462,99.746 L334.901462,118.65 L393.438462,85.101 L361.060462,66.197 Z M229.623462,61.408 L170.871462,95.08 L202.258462,113.405 L261.010462,79.733 L229.623462,61.408 Z M326.805462,46.197 L268.268462,79.746 L298.917462,97.64 L357.454462,64.092 L326.805462,46.197 Z M291.812462,25.767 L233.275462,59.315 L264.662462,77.64 L323.198462,44.092 L291.812462,25.767 Z" id="Gridx" fill="#FFFFFF"></path>
        <g id="s" stroke-linejoin="round" fill-rule="nonzero">
            <use fill="black" fill-opacity="1" filter="url(#filter-2)" xlink:href="#path-1"></use>
            <use stroke-opacity="0.401469624" stroke="#E831FC" stroke-width="1" fill="#00A7FF" xlink:href="#path-1"></use>
        </g>
        <g id="e" stroke-linejoin="round" fill-rule="nonzero">
            <use fill="black" fill-opacity="1" filter="url(#filter-4)" xlink:href="#path-3"></use>
            <use stroke-opacity="0.401469624" stroke="#E831FC" stroke-width="1" fill="#00A7FF" xlink:href="#path-3"></use>
        </g>
        <g id="l" stroke-linejoin="round" fill-rule="nonzero">
            <use fill="black" fill-opacity="1" filter="url(#filter-6)" xlink:href="#path-5"></use>
            <use stroke-opacity="0.401469624" stroke="#E831FC" stroke-width="1" fill="#00A7FF" xlink:href="#path-5"></use>
        </g>
        <g id="b" stroke-linejoin="round" fill-rule="nonzero">
            <use fill="black" fill-opacity="1" filter="url(#filter-8)" xlink:href="#path-7"></use>
            <use stroke-opacity="0.401469624" stroke="#E831FC" stroke-width="1" fill="#00A7FF" xlink:href="#path-7"></use>
        </g>
        <g id="a" stroke-linejoin="round" fill-rule="nonzero">
            <use fill="black" fill-opacity="1" filter="url(#filter-10)" xlink:href="#path-9"></use>
            <use stroke-opacity="0.401469624" stroke="#E831FC" stroke-width="1" fill="#00A7FF" xlink:href="#path-9"></use>
        </g>
        <g id="T" stroke-linejoin="round" fill-rule="nonzero">
            <use fill="black" fill-opacity="1" filter="url(#filter-12)" xlink:href="#path-11"></use>
            <use stroke-opacity="0.401469624" stroke="#E831FC" stroke-width="1" fill="#00A7FF" xlink:href="#path-11"></use>
        </g>
        <g id="t" stroke-linejoin="round" fill-rule="nonzero">
            <use fill="black" fill-opacity="1" filter="url(#filter-14)" xlink:href="#path-13"></use>
            <use stroke-opacity="0.401469624" stroke="#E831FC" stroke-width="1" fill="#00A7FF" xlink:href="#path-13"></use>
        </g>
        <g id="a" stroke-linejoin="round" fill-rule="nonzero">
            <use fill="black" fill-opacity="1" filter="url(#filter-16)" xlink:href="#path-15"></use>
            <use stroke-opacity="0.401469624" stroke="#E831FC" stroke-width="1" fill="#00A7FF" xlink:href="#path-15"></use>
        </g>
        <g id="e" stroke-linejoin="round" fill-rule="nonzero">
            <use fill="black" fill-opacity="1" filter="url(#filter-18)" xlink:href="#path-17"></use>
            <use stroke-opacity="0.401469624" stroke="#E831FC" stroke-width="1" fill="#00A7FF" xlink:href="#path-17"></use>
        </g>
        <g id="r" stroke-linejoin="round" fill-rule="nonzero">
            <use fill="black" fill-opacity="1" filter="url(#filter-20)" xlink:href="#path-19"></use>
            <use stroke-opacity="0.401469624" stroke="#E831FC" stroke-width="1" fill="#00A7FF" xlink:href="#path-19"></use>
        </g>
        <g id="G" stroke-linejoin="round" fill-rule="nonzero">
            <use fill="black" fill-opacity="1" filter="url(#filter-22)" xlink:href="#path-21"></use>
            <use stroke-opacity="0.401469624" stroke="#E831FC" stroke-width="1" fill="#00A7FF" xlink:href="#path-21"></use>
        </g>
    </g>
</svg>